<?xml version="1.0" encoding="UTF-8" standalone="no"?>
<svg
   xmlns:dc="http://purl.org/dc/elements/1.1/"
   xmlns:cc="http://creativecommons.org/ns#"
   xmlns:rdf="http://www.w3.org/1999/02/22-rdf-syntax-ns#"
   xmlns:svg="http://www.w3.org/2000/svg"
   xmlns="http://www.w3.org/2000/svg"
   xmlns:sodipodi="http://sodipodi.sourceforge.net/DTD/sodipodi-0.dtd"
   xmlns:inkscape="http://www.inkscape.org/namespaces/inkscape"
   width="30mm"
   height="30mm"
   viewBox="0 0 30 30"
   version="1.1"
   id="svg6076"
   inkscape:version="1.0.2 (e86c8708, 2021-01-15)"
   sodipodi:docname="smlogo.svg">
  <defs
     id="defs6070" />
  <sodipodi:namedview
     id="base"
     pagecolor="#ffffff"
     bordercolor="#666666"
     borderopacity="1.0"
     inkscape:pageopacity="0.0"
     inkscape:pageshadow="2"
     inkscape:zoom="6.1309653"
     inkscape:cx="58.042705"
     inkscape:cy="60.611926"
     inkscape:document-units="mm"
     inkscape:current-layer="layer1"
     inkscape:document-rotation="0"
     showgrid="false"
     inkscape:window-width="1252"
     inkscape:window-height="855"
     inkscape:window-x="1920"
     inkscape:window-y="622"
     inkscape:window-maximized="0" />
  <metadata
     id="metadata6073">
    <rdf:RDF>
      <cc:Work
         rdf:about="">
        <dc:format>image/svg+xml</dc:format>
        <dc:type
           rdf:resource="http://purl.org/dc/dcmitype/StillImage" />
        <dc:title></dc:title>
      </cc:Work>
    </rdf:RDF>
  </metadata>
  <g
     inkscape:label="Layer 1"
     inkscape:groupmode="layer"
     id="layer1">
    <ellipse
       style="display:inline;fill:#000000;fill-opacity:1;fill-rule:evenodd;stroke:none;stroke-width:0.193562;stroke-miterlimit:4;stroke-dasharray:none;stroke-opacity:1"
       id="path14-8-2-0-3-6-5-9-9-7-3"
       cx="14.957431"
       cy="15.1738"
       inkscape:label="path14"
       inkscape:export-xdpi="80.309998"
       inkscape:export-ydpi="80.309998"
       rx="14.473327"
       ry="14.34912" />
    <path
       id="path81-7-3-6-2-0-7-1-3-4-6"
       style="display:inline;fill:#ffffff;fill-opacity:1;stroke:none;stroke-width:0.0915679;stroke-linecap:butt;stroke-linejoin:miter;stroke-miterlimit:4;stroke-dasharray:none;stroke-dashoffset:0;stroke-opacity:1"
       inkscape:label="path81"
       d="m 10.270551,7.5581021 c -0.6760683,-0.0239 -1.4192392,0.20782 -2.4225893,0.68109 -1.0683101,0.3438499 -1.67951,1.272911 -0.42375,1.2722809 l -0.0305,0.817521 -0.7916803,0.30386 -0.0295,0.79426 c 0,0 -0.1218799,0.92303 0.8831499,0.86972 -0.1310898,0.0312 -0.2394699,0.0964 -0.0925,0.24339 0.2726101,0.27253 0.6317801,0.18158 1.93424,0.21188 1.3024987,0.0303 1.4428087,1.47949 1.4428087,1.47949 0,0 0.29254,2.37393 0.249081,4.68706 -1.4111098,-0.75091 -2.8200097,-1.41567 -3.2581995,-1.31982 -0.9692801,0.212031 -1.7973203,1.168599 -0.96945,2.544031 0.7580798,1.259459 2.0391198,2.156 3.3289995,2.964679 -0.3850487,0.636599 -0.8629487,0.97345 -1.8303798,0.73794 -0.4864192,-0.118409 -0.4466992,-0.39269 -1.7631994,-1.11466 -2.4238497,-0.9757 -2.0062097,-0.279319 -1.4107698,0.295069 1.2491899,0.891312 1.8640599,1.700391 2.7889799,2.078431 0.9092402,0.37163 2.1255701,0.331741 3.6767791,-0.99374 0.0256,-0.02749 0.0475,-0.0552 0.0724,-0.0827 -0.0176,0.0204 -0.0321,0.0411 -0.0501,0.0615 1.98446,1.235 4.453749,1.617701 6.72982,1.11414 0.111474,-0.0364 0.47274,-0.0834 0.44235,-0.126593 0.0187,0.002 0.0344,0.0049 0.0532,0.0071 0.01019,-0.05949 2.272048,0.242761 3.940329,-0.43356 1.616391,-0.65528 2.671369,-1.882271 2.894909,-3.15588 0.918704,-5.234284 -4.284236,-5.649844 -4.966097,-5.862254 -0.520259,-0.14109 -1.04089,-0.28213 -1.561149,-0.42323 -0.29529,-0.7384 -0.68944,-1.46124 -1.19372,-2.25154 -0.319991,-0.50147 -0.69857,-0.90889 -1.1095,-1.24075 5.7e-4,4.6e-4 0.0039,0.002 0.0039,0.003 0,0 0.152872,-0.48316 0.734841,-0.98392 0.117488,-0.0937 2.0759,-1.5901415 5.63738,-0.0749 l 0.251149,2.42673 v 5.2e-4 l 1.61799,-0.0837 -0.195338,-3.2917907 C 24.2825,9.042462 19.42637,7.027411 15.919682,9.7027231 c -0.514901,0.4458399 -0.837681,1.0666009 -0.837681,1.0666009 0.004,0.001 0.008,0.004 0.0119,0.006 -0.591049,-0.21081 -1.179999,-0.32726 -1.715139,-0.38964 -3.5e-4,-0.002 -6.8e-4,-0.004 -10e-4,-0.006 0,0 -0.68072,-1.8741419 -1.92081,-2.499082 C 11.05793,7.6795221 10.6761,7.5729921 10.27046,7.558662 Z M 9.4902319,10.055113 c 7.598e-4,0.004 9.998e-4,0.007 0.00201,0.0109 -7.21e-4,-0.004 -10e-4,-0.007 -0.00201,-0.0109 z m 4.3800991,3.109881 c 0.005,0.002 0.01001,0.005 0.015,0.007 -0.005,-4.1e-4 -0.01,-0.002 -0.0145,-0.002 -7e-5,-0.002 -4.5e-4,-0.003 -5.2e-4,-0.005 z m 5.599659,3.16105 c 0.01611,0.0628 0.03141,0.1259 0.046,0.18914 -0.01446,-0.0635 -0.03021,-0.1264 -0.046,-0.18914 z m -5.747458,0.147279 c 0.52615,0.88369 0.910169,1.675211 1.077459,2.655131 -0.0823,0.595089 -0.20672,1.18408 -0.38654,1.73943 0,0 -0.449,-0.271909 -1.09348,-0.64802 0.119929,-0.738059 0.19883,-1.53356 0.296631,-2.428789 0.0318,-0.426172 0.0689,-0.875442 0.10593,-1.317752 z m 5.851329,0.31419 c 0.0039,0.0203 0.009,0.0402 0.01282,0.0605 0.02181,0.113339 0.0398,0.230519 0.0599,0.344169 0.56331,0.158476 1.129079,0.31332 1.6924,0.471801 0,0 2.786581,0.54299 2.361611,3.35329 -0.400111,2.64592 -4.392691,2.437089 -4.378541,2.348689 0.478091,-2.9874 0.57221,-4.937159 0.251662,-6.578409 z"
       inkscape:export-xdpi="80"
       inkscape:export-ydpi="80" />
  </g>
</svg>
